# xmcd CD database file generated by Grip 2.95
# 
# Track frame offsets:
#       150
#       15810
#       34635
#       49927
#       68875
#       82104
#       96165
#       108500
#       124507
#       144457
# 
# Disc length: 2126 seconds
# 
# Revision: 3
# Processed by: cddbd v1.4b41PL1 Copyright (c) Steve Scherf et al.
# Submitted via: Grip 2.95
# 
DISCID=7c084c0a
DTITLE=Various Artist - Zydeco Dance Party
DYEAR=1900
DGENRE=
TTITLE0=Hound Dog Roll - Jude Taylor and his Burning Flames
TTITLE1=The Fish Song - Fernest Arceneaux and the Zydeco All Stars
TTITLE2=Hot Tamale Baby - The Zydeco Hurricanes
TTITLE3=I Know a Man - Jude Taylor and His Burning Flames
TTITLE4=Jolie Blonde - Fernest Arceneaux and the Zydeco All Stars
TTITLE5=Midnight Mood - The Zydeco Hurricanes
TTITLE6=Southern City Woman - Jude Taylor and His Burning Flames
TTITLE7=Tonight's the Night - The Zydeco Hurricanes
TTITLE8=I'm On My Way Back Home - Fernest Arceneaux and the Zydeco All Stars
TTITLE9=Hassle in the Castle - Jude Taylor and His Burning Flames
EXTD=
EXTT0=
EXTT1=
EXTT2=
EXTT3=
EXTT4=
EXTT5=
EXTT6=
EXTT7=
EXTT8=
EXTT9=
PLAYORDER=
